<mxfile host="app.diagrams.net" modified="2021-08-19T15:39:39.070Z" agent="5.0 (Macintosh; Intel Mac OS X 10_15_7) AppleWebKit/537.36 (KHTML, like Gecko) Chrome/86.0.4240.193 Safari/537.36" etag="oW_BtXmVYphBIq4PeV36" version="14.9.7" type="github">
  <diagram id="6MtrnzUSQC7sY62Lb6zY" name="Page-1">
    <mxGraphModel dx="946" dy="536" grid="1" gridSize="10" guides="1" tooltips="1" connect="1" arrows="1" fold="1" page="1" pageScale="1" pageWidth="827" pageHeight="1169" math="0" shadow="0">
      <root>
        <mxCell id="0" />
        <mxCell id="1" parent="0" />
        <mxCell id="FYGE_YMzCLiSaxmC1TB3-1" style="rounded=0;orthogonalLoop=1;jettySize=auto;html=1;exitX=0;exitY=1;exitDx=0;exitDy=0;entryX=0.675;entryY=0.05;entryDx=0;entryDy=0;entryPerimeter=0;fillColor=#ffe6cc;strokeColor=#d79b00;" edge="1" parent="1" source="FYGE_YMzCLiSaxmC1TB3-3" target="FYGE_YMzCLiSaxmC1TB3-6">
          <mxGeometry relative="1" as="geometry" />
        </mxCell>
        <mxCell id="FYGE_YMzCLiSaxmC1TB3-2" style="edgeStyle=none;rounded=0;orthogonalLoop=1;jettySize=auto;html=1;exitX=1;exitY=1;exitDx=0;exitDy=0;entryX=0;entryY=0;entryDx=0;entryDy=0;fillColor=#ffe6cc;strokeColor=#d79b00;" edge="1" parent="1" source="FYGE_YMzCLiSaxmC1TB3-3" target="FYGE_YMzCLiSaxmC1TB3-7">
          <mxGeometry relative="1" as="geometry" />
        </mxCell>
        <mxCell id="FYGE_YMzCLiSaxmC1TB3-3" value="10" style="ellipse;whiteSpace=wrap;html=1;aspect=fixed;fillColor=#ffe6cc;strokeColor=#d79b00;" vertex="1" parent="1">
          <mxGeometry x="200" y="100" width="40" height="40" as="geometry" />
        </mxCell>
        <mxCell id="FYGE_YMzCLiSaxmC1TB3-4" style="edgeStyle=none;rounded=0;orthogonalLoop=1;jettySize=auto;html=1;exitX=0;exitY=1;exitDx=0;exitDy=0;entryX=0.5;entryY=0;entryDx=0;entryDy=0;fillColor=#ffe6cc;strokeColor=#d79b00;" edge="1" parent="1" source="FYGE_YMzCLiSaxmC1TB3-6" target="FYGE_YMzCLiSaxmC1TB3-8">
          <mxGeometry relative="1" as="geometry" />
        </mxCell>
        <mxCell id="FYGE_YMzCLiSaxmC1TB3-5" style="edgeStyle=none;rounded=0;orthogonalLoop=1;jettySize=auto;html=1;exitX=1;exitY=1;exitDx=0;exitDy=0;entryX=0.5;entryY=0;entryDx=0;entryDy=0;fillColor=#ffe6cc;strokeColor=#d79b00;" edge="1" parent="1" source="FYGE_YMzCLiSaxmC1TB3-6" target="FYGE_YMzCLiSaxmC1TB3-9">
          <mxGeometry relative="1" as="geometry" />
        </mxCell>
        <mxCell id="FYGE_YMzCLiSaxmC1TB3-6" value="8" style="ellipse;whiteSpace=wrap;html=1;aspect=fixed;fillColor=#ffe6cc;strokeColor=#d79b00;" vertex="1" parent="1">
          <mxGeometry x="150" y="170" width="40" height="40" as="geometry" />
        </mxCell>
        <mxCell id="FYGE_YMzCLiSaxmC1TB3-11" style="rounded=0;orthogonalLoop=1;jettySize=auto;html=1;exitX=0;exitY=1;exitDx=0;exitDy=0;entryX=0.5;entryY=0;entryDx=0;entryDy=0;fillColor=#ffe6cc;strokeColor=#d79b00;" edge="1" parent="1" source="FYGE_YMzCLiSaxmC1TB3-7" target="FYGE_YMzCLiSaxmC1TB3-10">
          <mxGeometry relative="1" as="geometry" />
        </mxCell>
        <mxCell id="FYGE_YMzCLiSaxmC1TB3-7" value="2" style="ellipse;whiteSpace=wrap;html=1;aspect=fixed;fillColor=#ffe6cc;strokeColor=#d79b00;" vertex="1" parent="1">
          <mxGeometry x="260" y="170" width="40" height="40" as="geometry" />
        </mxCell>
        <mxCell id="FYGE_YMzCLiSaxmC1TB3-8" value="4" style="ellipse;whiteSpace=wrap;html=1;aspect=fixed;fillColor=#ffe6cc;strokeColor=#d79b00;" vertex="1" parent="1">
          <mxGeometry x="110" y="240" width="40" height="40" as="geometry" />
        </mxCell>
        <mxCell id="FYGE_YMzCLiSaxmC1TB3-9" value="5" style="ellipse;whiteSpace=wrap;html=1;aspect=fixed;fillColor=#ffe6cc;strokeColor=#d79b00;" vertex="1" parent="1">
          <mxGeometry x="180" y="240" width="40" height="40" as="geometry" />
        </mxCell>
        <mxCell id="FYGE_YMzCLiSaxmC1TB3-10" value="1" style="ellipse;whiteSpace=wrap;html=1;aspect=fixed;fillColor=#ffe6cc;strokeColor=#d79b00;" vertex="1" parent="1">
          <mxGeometry x="230" y="240" width="40" height="40" as="geometry" />
        </mxCell>
      </root>
    </mxGraphModel>
  </diagram>
</mxfile>
